<svg width="350" height="350" viewBox="0 0 673 454" fill="none" xmlns="http://www.w3.org/2000/svg">
<path d="M502.716 69.1981C491.591 71.3231 480.924 73.4065 470.257 75.4481C468.132 75.8648 466.632 76.1565 463.882 76.2398C461.841 76.3231 457.507 76.4065 457.882 74.1981C458.382 72.4065 458.966 71.1981 462.591 70.1148C471.966 67.3648 481.674 66.0315 491.299 64.6565C499.799 63.4481 506.299 62.6565 513.882 62.0315C517.424 61.7398 518.841 63.4898 518.424 66.7398C518.049 69.6565 517.716 72.6565 516.799 75.4481C513.549 85.5315 510.049 95.4898 506.632 105.531C506.216 106.781 505.966 107.781 505.257 109.198C504.382 110.906 503.841 112.198 502.049 111.698C500.341 111.24 500.424 108.74 500.716 107.49C502.924 96.9898 507.841 75.4065 507.841 74.1981C502.382 77.6981 497.257 80.8231 492.299 84.2398C457.882 108.198 425.466 134.406 399.674 167.99C379.257 194.573 362.341 223.115 349.841 254.24C349.091 256.073 348.174 257.865 347.257 259.573C346.049 261.906 345.007 262.906 343.757 262.365C341.549 261.031 341.966 259.24 342.174 257.781C342.549 254.865 343.549 251.99 344.507 249.198C357.716 211.99 378.716 179.406 404.091 149.448C430.132 118.698 461.966 95.0315 495.924 73.9898C497.757 72.9481 502.049 69.9481 502.716 69.1981Z" fill="#293241"/>
<path d="M200.505 334.527C183.047 344.694 165.589 354.819 148.214 365.152C147.005 365.861 146.172 368.027 146.047 369.569C143.297 406.361 125.089 433.152 92.7553 450.194C87.3803 453.027 81.0469 454.194 74.0053 453.611C64.7136 452.861 58.8386 445.486 59.797 436.194C60.6303 428.069 64.7136 421.486 69.547 415.277C80.297 401.569 93.8386 390.819 107.714 380.569C116.505 374.069 125.672 368.111 134.922 361.694C132.63 357.194 127.047 353.986 122.214 354.402C113.047 355.152 108.672 357.236 101.755 359.986C80.0469 368.611 61.297 382.111 44.672 398.236C32.297 410.236 20.7969 423.111 8.92195 435.611C7.88028 436.694 6.92195 437.902 5.88028 438.861C4.25528 440.361 2.63028 440.944 1.08862 439.902C-0.578049 439.152 0.0469516 436.444 0.505285 435.027C1.25528 432.694 2.50529 430.444 4.00529 428.527C27.3803 398.069 54.2969 371.569 89.2136 354.444C96.8803 350.694 105.214 348.069 113.505 345.986C125.422 343.027 135.964 345.486 143.047 356.944C160.005 347.861 176.714 338.902 193.714 329.777C187.464 329.777 181.547 329.777 175.589 329.777C174.589 329.777 173.589 329.902 172.589 329.819C169.88 329.611 166.297 330.152 166.047 326.236C165.797 322.402 169.422 322.361 171.797 322.319C183.839 322.027 195.922 321.861 207.964 322.152C212.88 322.277 215.255 325.527 213.255 329.944C207.589 342.777 201.297 355.402 194.964 367.944C194.38 369.111 192.255 370.902 189.88 369.736C188.13 368.652 188.172 365.819 188.714 364.444C192.005 356.152 195.672 347.986 199.255 339.777C199.88 338.319 200.589 336.861 201.255 335.402C202.755 333.152 201.88 333.736 200.505 334.527ZM138.38 372.194C138.505 370.694 136.255 372.652 135.88 372.902C116.255 385.986 97.0886 399.652 81.2136 417.277C76.9636 421.986 73.3803 427.611 70.7553 433.402C67.2969 441.111 71.6719 446.486 80.0469 444.944C85.4636 443.944 91.0886 442.152 95.7969 439.319C115.839 427.361 131.797 404.069 135.88 387.527C137.38 381.194 137.38 379.444 138.38 372.194Z" fill="#293241"/>
<path d="M234.364 320H218.591V273.455H234.682C239.303 273.455 243.273 274.386 246.591 276.25C249.924 278.098 252.485 280.758 254.273 284.227C256.061 287.697 256.955 291.848 256.955 296.682C256.955 301.53 256.053 305.697 254.25 309.182C252.462 312.667 249.879 315.341 246.5 317.205C243.136 319.068 239.091 320 234.364 320ZM227.023 312.705H233.955C237.197 312.705 239.902 312.114 242.068 310.932C244.235 309.735 245.864 307.955 246.955 305.591C248.045 303.212 248.591 300.242 248.591 296.682C248.591 293.121 248.045 290.167 246.955 287.818C245.864 285.455 244.25 283.689 242.114 282.523C239.992 281.341 237.356 280.75 234.205 280.75H227.023V312.705ZM280.057 320.682C276.557 320.682 273.534 319.955 270.989 318.5C268.458 317.03 266.511 314.955 265.148 312.273C263.784 309.576 263.102 306.402 263.102 302.75C263.102 299.159 263.784 296.008 265.148 293.295C266.527 290.568 268.451 288.447 270.92 286.932C273.39 285.402 276.292 284.636 279.625 284.636C281.777 284.636 283.807 284.985 285.716 285.682C287.64 286.364 289.337 287.424 290.807 288.864C292.292 290.303 293.458 292.136 294.307 294.364C295.155 296.576 295.58 299.212 295.58 302.273V304.795H266.966V299.25H287.693C287.678 297.674 287.337 296.273 286.67 295.045C286.004 293.803 285.072 292.826 283.875 292.114C282.693 291.402 281.314 291.045 279.739 291.045C278.057 291.045 276.58 291.455 275.307 292.273C274.034 293.076 273.042 294.136 272.33 295.455C271.633 296.758 271.277 298.189 271.261 299.75V304.591C271.261 306.621 271.633 308.364 272.375 309.818C273.117 311.258 274.155 312.364 275.489 313.136C276.822 313.894 278.383 314.273 280.17 314.273C281.367 314.273 282.451 314.106 283.42 313.773C284.39 313.424 285.231 312.917 285.943 312.25C286.655 311.583 287.193 310.758 287.557 309.773L295.239 310.636C294.754 312.667 293.83 314.439 292.466 315.955C291.117 317.455 289.39 318.621 287.284 319.455C285.178 320.273 282.769 320.682 280.057 320.682ZM330.131 294.318L322.631 295.136C322.419 294.379 322.047 293.667 321.517 293C321.002 292.333 320.305 291.795 319.426 291.386C318.547 290.977 317.472 290.773 316.199 290.773C314.487 290.773 313.047 291.144 311.881 291.886C310.729 292.629 310.161 293.591 310.176 294.773C310.161 295.788 310.532 296.614 311.29 297.25C312.063 297.886 313.335 298.409 315.108 298.818L321.062 300.091C324.366 300.803 326.82 301.932 328.426 303.477C330.047 305.023 330.866 307.045 330.881 309.545C330.866 311.742 330.222 313.682 328.949 315.364C327.691 317.03 325.941 318.333 323.699 319.273C321.456 320.212 318.881 320.682 315.972 320.682C311.699 320.682 308.259 319.788 305.653 318C303.047 316.197 301.494 313.689 300.994 310.477L309.017 309.705C309.381 311.28 310.153 312.47 311.335 313.273C312.517 314.076 314.055 314.477 315.949 314.477C317.903 314.477 319.472 314.076 320.653 313.273C321.85 312.47 322.449 311.477 322.449 310.295C322.449 309.295 322.063 308.47 321.29 307.818C320.532 307.167 319.35 306.667 317.744 306.318L311.79 305.068C308.441 304.371 305.964 303.197 304.358 301.545C302.752 299.879 301.956 297.773 301.972 295.227C301.956 293.076 302.54 291.212 303.722 289.636C304.919 288.045 306.578 286.818 308.699 285.955C310.835 285.076 313.297 284.636 316.085 284.636C320.176 284.636 323.396 285.508 325.744 287.25C328.108 288.992 329.57 291.348 330.131 294.318ZM337.665 320V285.091H345.892V320H337.665ZM341.801 280.136C340.498 280.136 339.377 279.705 338.438 278.841C337.498 277.962 337.028 276.909 337.028 275.682C337.028 274.439 337.498 273.386 338.438 272.523C339.377 271.644 340.498 271.205 341.801 271.205C343.119 271.205 344.241 271.644 345.165 272.523C346.104 273.386 346.574 274.439 346.574 275.682C346.574 276.909 346.104 277.962 345.165 278.841C344.241 279.705 343.119 280.136 341.801 280.136ZM369.534 333.818C366.58 333.818 364.042 333.417 361.92 332.614C359.799 331.826 358.095 330.765 356.807 329.432C355.519 328.098 354.625 326.621 354.125 325L361.534 323.205C361.867 323.886 362.352 324.561 362.989 325.227C363.625 325.909 364.481 326.47 365.557 326.909C366.648 327.364 368.019 327.591 369.67 327.591C372.004 327.591 373.936 327.023 375.466 325.886C376.996 324.765 377.761 322.917 377.761 320.341V313.727H377.352C376.928 314.576 376.307 315.447 375.489 316.341C374.686 317.235 373.617 317.985 372.284 318.591C370.966 319.197 369.307 319.5 367.307 319.5C364.625 319.5 362.193 318.871 360.011 317.614C357.845 316.341 356.117 314.447 354.83 311.932C353.557 309.402 352.92 306.235 352.92 302.432C352.92 298.598 353.557 295.364 354.83 292.727C356.117 290.076 357.852 288.068 360.034 286.705C362.216 285.326 364.648 284.636 367.33 284.636C369.375 284.636 371.057 284.985 372.375 285.682C373.708 286.364 374.769 287.189 375.557 288.159C376.345 289.114 376.943 290.015 377.352 290.864H377.807V285.091H385.92V320.568C385.92 323.553 385.208 326.023 383.784 327.977C382.36 329.932 380.413 331.394 377.943 332.364C375.473 333.333 372.67 333.818 369.534 333.818ZM369.602 313.045C371.345 313.045 372.83 312.621 374.057 311.773C375.284 310.924 376.216 309.705 376.852 308.114C377.489 306.523 377.807 304.614 377.807 302.386C377.807 300.189 377.489 298.265 376.852 296.614C376.231 294.962 375.307 293.682 374.08 292.773C372.867 291.848 371.375 291.386 369.602 291.386C367.769 291.386 366.239 291.864 365.011 292.818C363.784 293.773 362.86 295.083 362.239 296.75C361.617 298.402 361.307 300.28 361.307 302.386C361.307 304.523 361.617 306.394 362.239 308C362.875 309.591 363.807 310.833 365.034 311.727C366.277 312.606 367.799 313.045 369.602 313.045ZM402.58 299.545V320H394.352V285.091H402.216V291.023H402.625C403.428 289.068 404.708 287.515 406.466 286.364C408.239 285.212 410.428 284.636 413.034 284.636C415.443 284.636 417.542 285.152 419.33 286.182C421.133 287.212 422.527 288.705 423.511 290.659C424.511 292.614 425.004 294.985 424.989 297.773V320H416.761V299.045C416.761 296.712 416.155 294.886 414.943 293.568C413.746 292.25 412.087 291.591 409.966 291.591C408.527 291.591 407.246 291.909 406.125 292.545C405.019 293.167 404.148 294.068 403.511 295.25C402.89 296.432 402.58 297.864 402.58 299.545Z" fill="#353F50"/>
<path d="M522.591 62V15.4545H540.409C543.773 15.4545 546.568 15.9848 548.795 17.0455C551.038 18.0909 552.712 19.5227 553.818 21.3409C554.939 23.1591 555.5 25.2197 555.5 27.5227C555.5 29.4167 555.136 31.0379 554.409 32.3864C553.682 33.7197 552.705 34.803 551.477 35.6364C550.25 36.4697 548.879 37.0682 547.364 37.4318V37.8864C549.015 37.9773 550.598 38.4848 552.114 39.4091C553.644 40.3182 554.894 41.6061 555.864 43.2727C556.833 44.9394 557.318 46.9545 557.318 49.3182C557.318 51.7273 556.735 53.8939 555.568 55.8182C554.402 57.7273 552.644 59.2348 550.295 60.3409C547.947 61.447 544.992 62 541.432 62H522.591ZM531.023 54.9545H540.091C543.152 54.9545 545.356 54.3712 546.705 53.2045C548.068 52.0227 548.75 50.5076 548.75 48.6591C548.75 47.2803 548.409 46.0379 547.727 44.9318C547.045 43.8106 546.076 42.9318 544.818 42.2955C543.561 41.6439 542.061 41.3182 540.318 41.3182H531.023V54.9545ZM531.023 35.25H539.364C540.818 35.25 542.129 34.9848 543.295 34.4545C544.462 33.9091 545.379 33.1439 546.045 32.1591C546.727 31.1591 547.068 29.9773 547.068 28.6136C547.068 26.8106 546.432 25.3258 545.159 24.1591C543.902 22.9924 542.03 22.4091 539.545 22.4091H531.023V35.25ZM586.54 47.3182V27.0909H594.767V62H586.79V55.7955H586.426C585.638 57.75 584.343 59.3485 582.54 60.5909C580.752 61.8333 578.547 62.4545 575.926 62.4545C573.638 62.4545 571.616 61.947 569.858 60.9318C568.116 59.9015 566.752 58.4091 565.767 56.4545C564.782 54.4848 564.29 52.1061 564.29 49.3182V27.0909H572.517V48.0455C572.517 50.2576 573.123 52.0152 574.335 53.3182C575.547 54.6212 577.138 55.2727 579.108 55.2727C580.32 55.2727 581.494 54.9773 582.631 54.3864C583.767 53.7955 584.699 52.9167 585.426 51.75C586.169 50.5682 586.54 49.0909 586.54 47.3182ZM603.227 62V27.0909H611.455V62H603.227ZM607.364 22.1364C606.061 22.1364 604.939 21.7045 604 20.8409C603.061 19.9621 602.591 18.9091 602.591 17.6818C602.591 16.4394 603.061 15.3864 604 14.5227C604.939 13.6439 606.061 13.2045 607.364 13.2045C608.682 13.2045 609.803 13.6439 610.727 14.5227C611.667 15.3864 612.136 16.4394 612.136 17.6818C612.136 18.9091 611.667 19.9621 610.727 20.8409C609.803 21.7045 608.682 22.1364 607.364 22.1364ZM628.142 15.4545V62H619.915V15.4545H628.142ZM649.557 62.6136C646.814 62.6136 644.36 61.9091 642.193 60.5C640.027 59.0909 638.314 57.0455 637.057 54.3636C635.799 51.6818 635.17 48.4242 635.17 44.5909C635.17 40.7121 635.807 37.4394 637.08 34.7727C638.367 32.0909 640.102 30.0682 642.284 28.7045C644.466 27.3258 646.898 26.6364 649.58 26.6364C651.625 26.6364 653.307 26.9848 654.625 27.6818C655.943 28.3636 656.989 29.1894 657.761 30.1591C658.534 31.1136 659.133 32.0152 659.557 32.8636H659.898V15.4545H668.148V62H660.057V56.5H659.557C659.133 57.3485 658.519 58.25 657.716 59.2045C656.913 60.1439 655.852 60.947 654.534 61.6136C653.216 62.2803 651.557 62.6136 649.557 62.6136ZM651.852 55.8636C653.595 55.8636 655.08 55.3939 656.307 54.4545C657.534 53.5 658.466 52.1742 659.102 50.4773C659.739 48.7803 660.057 46.803 660.057 44.5455C660.057 42.2879 659.739 40.3258 659.102 38.6591C658.481 36.9924 657.557 35.697 656.33 34.7727C655.117 33.8485 653.625 33.3864 651.852 33.3864C650.019 33.3864 648.489 33.8636 647.261 34.8182C646.034 35.7727 645.11 37.0909 644.489 38.7727C643.867 40.4545 643.557 42.3788 643.557 44.5455C643.557 46.7273 643.867 48.6742 644.489 50.3864C645.125 52.0833 646.057 53.4242 647.284 54.4091C648.527 55.3788 650.049 55.8636 651.852 55.8636Z" fill="#293241"/>
</svg>
